<svg class="icon" viewBox="0 0 1024 1024" 
  width="16" height="16">
  <path
    d="M511.994 1024a511.994 511.994 0 00468.954-717.59 32 32 0 10-58.56 25.759 447.994 447.994 0 11-229.277-230.077 32 32 0 0025.92-58.56A511.994 511.994 0 10511.994 1024z"
    fill="#211B13" />
  <path
    d="M839.35 235.69l42.879-85.919-85.92 42.24c-32.959 16-323.035 162.397-381.594 220.957a143.998 143.998 0 10203.677 204.317c58.56-58.56 204.478-348.795 220.957-381.595zM516.472 595.525a79.999 79.999 0 01-56.639-136.638c30.56-30.56 161.598-103.679 277.117-163.998-60.32 115.519-133.439 246.557-163.998 277.117a79.999 79.999 0 01-56.48 23.52z"
    fill="#211B13" />
  <path
    d="M239.997 512.006a32 32 0 00-64 0 335.996 335.996 0 00335.997 335.996 32 32 0 000-63.999 271.997 271.997 0 01-271.997-271.997z"
    fill="#FFB243" />
</svg>